<?xml version="1.0" standalone="no"?>
<!DOCTYPE svg PUBLIC "-//W3C//DTD SVG 20010904//EN"
 "http://www.w3.org/TR/2001/REC-SVG-20010904/DTD/svg10.dtd">
<svg version="1.0" xmlns="http://www.w3.org/2000/svg"
 width="32.000000pt" height="32.000000pt" viewBox="0 0 32.000000 32.000000"
 preserveAspectRatio="xMidYMid meet">

<g transform="translate(0.000000,32.000000) scale(0.100000,-0.100000)"
fill="#000000" stroke="none">
<path d="M95 291 c-87 -40 -108 -119 -58 -217 21 -42 69 -64 141 -64 35 0 48
6 77 35 45 45 45 65 0 30 -25 -18 -53 -28 -90 -32 -53 -6 -56 -5 -95 34 -42
43 -47 62 -30 125 12 41 50 76 92 85 16 3 31 10 34 14 9 15 -29 10 -71 -10z"/>
<path d="M180 290 c0 -5 5 -10 10 -10 23 0 80 -47 91 -75 12 -33 24 -18 15 19
-11 44 -45 76 -82 76 -19 0 -34 -4 -34 -10z"/>
<path d="M83 167 c1 -5 24 -10 50 -9 26 0 63 1 84 1 20 1 33 4 29 8 -11 12
-167 12 -163 0z"/>
</g>
</svg>
