<svg xmlns="http://www.w3.org/2000/svg" version="1.1" xmlns:xlink="http://www.w3.org/1999/xlink" xmlns:svgjs="http://svgjs.com/svgjs" width="1440" height="560" preserveAspectRatio="none" viewBox="0 0 1440 560"><g mask="url(&quot;#SvgjsMask1007&quot;)" fill="none"><rect width="1440" height="560" x="0" y="0" fill="url(#SvgjsLinearGradient1008)"></rect><path d="M 0,61 C 96,75 288,127.4 480,131 C 672,134.6 768,73.4 960,79 C 1152,84.6 1344,143 1440,159L1440 560L0 560z" fill="#5b206f"></path><path d="M 0,213 C 57.6,237 172.8,337.6 288,333 C 403.2,328.4 460.8,200.2 576,190 C 691.2,179.8 748.8,276.6 864,282 C 979.2,287.4 1036.8,209.8 1152,217 C 1267.2,224.2 1382.4,297.8 1440,318L1440 560L0 560z" fill="#184a7e"></path><path d="M 0,553 C 96,517.2 288,383.8 480,374 C 672,364.2 768,490.2 960,504 C 1152,517.8 1344,455.2 1440,443L1440 560L0 560z" fill="#2264ab"></path></g><defs><mask id="SvgjsMask1007"><rect width="1440" height="560" fill="#ffffff"></rect></mask><linearGradient x1="15.28%" y1="-39.29%" x2="84.72%" y2="139.29%" gradientUnits="userSpaceOnUse" id="SvgjsLinearGradient1008"><stop stop-color="#0e2a47" offset="0"></stop><stop stop-color="#00459e" offset="1"></stop></linearGradient></defs></svg>